# xmcd
#
# Track frame offsets:
#	150
#	10750
#	22885
#	36550
#	48560
#	59417
#	70840
#	83430
#	103262
#	116450
#	135505
#	148420
#	158422
#	169920
#
# Disc length: 2425 seconds
#
# Revision: 1
# Processed by: cddbd v1.5.1PL0 Copyright (c) Steve Scherf et al.
# Submitted via: audiograbber 1.83.01
#
DISCID=b909770e
DTITLE=Chuck Berry - Maybelline
DYEAR=1900
DGENRE=
TTITLE0=Maybelline
TTITLE1=School Days
TTITLE2=Sweet Little Sixteen
TTITLE3=Johnny B. Good
TTITLE4=Roll Over Beethoven
TTITLE5=Rock and Roll Music
TTITLE6=Carol
TTITLE7=My Ding A Ling
TTITLE8=Too Much Monkey Business
TTITLE9=Hoochie Coochie Man
TTITLE10=In The Wee Wee Hours
TTITLE11=Memphis
TTITLE12=Nadine
TTITLE13=No Particular Place To Go
EXTD=Classic Sound Inc.
EXTT0=
EXTT1=
EXTT2=
EXTT3=
EXTT4=
EXTT5=
EXTT6=
EXTT7=
EXTT8=
EXTT9=
EXTT10=
EXTT11=
EXTT12=
EXTT13=
PLAYORDER=
